# xmcd CD database file
#
# Track frame offsets:
#	150
#	11670
#	23640
#	37410
#	51627
#	65817
#	79490
#	93252
#	107130
#	118917
#	131587
#	141682
#	153645
#	167867
#	181672
#	196465
#	208992
#	222867
#	235075
#	248190
#	257952
#	270477
#
# Disc length: 3774 seconds
#
# Revision: 2
# Processed by: cddbd v1.5PL3 Copyright (c) Steve Scherf et al.
# Submitted via: CDex 1.51
#
DISCID=5d0ebc16
DTITLE=Billie Holiday - Lady Of Jazz - CD2 - Easy Livin'
DYEAR=1995
DGENRE=Jazz
TTITLE0=Carelessly [C.Kenny, M.Kenny, N.Ellis]
TTITLE1=Let's Call The Whole Thing Off [Gershwin]
TTITLE2=They Can't Take That Away From Me [Gershwin]
TTITLE3=I'll Get By [Turk, Ahlert]
TTITLE4=Mean To Me [Turk, Ahlert]
TTITLE5=Foolin' Myself [Lawrence, Tinturin]
TTITLE6=Easy Livin' [Robin, Rainger]
TTITLE7=I'll Never Be The Same [Kahn, Malneck]
TTITLE8=Me, Myself And I [Gordon, Roberts, Kaufman]
TTITLE9=A Sailboat In The Moonlight [C. Lombardo]
TTITLE10=Trav'lin All Alone [Johnson]
TTITLE11=He's Funny That Way [Whiting, Moret]
TTITLE12=Nice Work If You Can Get It [Gershwin]
TTITLE13=My Man [Pollack, Yvain]
TTITLE14=Can't Help Lovin' Dat Man [Hammerstein II, Kern]
TTITLE15=I Can't Believe That You're In Love With Me [Gaskill, McHugh]
TTITLE16=If Dreams Come True [Mills, Sampson, Goodman]
TTITLE17=Back In Your Own Back Yard [Jolson, Rose, Dreyer]
TTITLE18=You Go To My Head [Gillespie, Coots]
TTITLE19=I'm Gonna Lock My Heart (And Throw Away The Key) [Eaton, Shand]
TTITLE20=The Very Thought Of You [Noble]
TTITLE21=I Can't Get Started [I. Gershwin, Duke]
EXTD=YEAR: 1995
EXTT0=
EXTT1=
EXTT2=
EXTT3=
EXTT4=
EXTT5=
EXTT6=
EXTT7=
EXTT8=
EXTT9=
EXTT10=
EXTT11=
EXTT12=
EXTT13=
EXTT14=
EXTT15=
EXTT16=
EXTT17=
EXTT18=
EXTT19=
EXTT20=
EXTT21=
PLAYORDER=
